<svg width="400" height="300" viewBox="0 0 400 300" xmlns="http://www.w3.org/2000/svg">
  <defs>
    <linearGradient id="sky" x1="0%" y1="0%" x2="0%" y2="100%">
      <stop offset="0%" style="stop-color:#FF6B35;stop-opacity:1" />
      <stop offset="50%" style="stop-color:#FF8E53;stop-opacity:1" />
      <stop offset="100%" style="stop-color:#FFB347;stop-opacity:1" />
    </linearGradient>
    <linearGradient id="land" x1="0%" y1="0%" x2="0%" y2="100%">
      <stop offset="0%" style="stop-color:#8B4513;stop-opacity:1" />
      <stop offset="100%" style="stop-color:#654321;stop-opacity:1" />
    </linearGradient>
  </defs>
  
  <!-- Sky -->
  <rect width="400" height="200" fill="url(#sky)"/>
  
  <!-- Sun -->
  <circle cx="320" cy="60" r="25" fill="#FFD700" opacity="0.8"/>
  
  <!-- Mountains -->
  <path d="M0 200 L100 120 L200 160 L300 100 L400 140 L400 200 Z" fill="url(#land)"/>
  
  <!-- Palm tree silhouette -->
  <path d="M50 200 L50 120 Q50 100 70 100 Q90 100 90 120 L90 200 Z" fill="#228B22" opacity="0.7"/>
  <circle cx="70" cy="110" r="15" fill="#228B22" opacity="0.7"/>
  
  <!-- Sea -->
  <rect x="0" y="200" width="400" height="100" fill="#4682B4" opacity="0.6"/>
  
  <!-- Wave lines -->
  <path d="M0 220 Q50 210 100 220 Q150 230 200 220 Q250 210 300 220 Q350 230 400 220" stroke="#FFFFFF" stroke-width="2" fill="none" opacity="0.3"/>
  <path d="M0 240 Q50 230 100 240 Q150 250 200 240 Q250 230 300 240 Q350 250 400 240" stroke="#FFFFFF" stroke-width="2" fill="none" opacity="0.3"/>
</svg>
